# xmcd
#
# Track frame offsets:
#	150
#	18465
#	34952
#	49306
#	61709
#	81446
#	99758
#	113692
#	128843
#	144608
#	158601
#	176688
#	193914
#	210669
#	225534
#	245279
#	260517
#	275775
#	291069
#	308254
#
# Disc length: 4286 seconds
#
# Revision: 0
# Processed by: cddbd v1.5.2PL0 Copyright (c) Steve Scherf et al.
# Submitted via: EasyCDDAExtractor 15.3.0.1
#
DISCID=1610bc14
DTITLE=Pandora - Lo Mejor De... Pandora
DYEAR=2016
DGENRE=Latin
TTITLE0=Como Te Va Mi Amor
TTITLE1=Ya No Es Lo Mismo
TTITLE2=De Mil Maneras
TTITLE3=Cuando Quieras Dejame
TTITLE4=Con Tu Amor
TTITLE5=Todavia
TTITLE6=No Lastimes Mas
TTITLE7=Mi Hombre
TTITLE8=Alguien Llena Mi Lugar
TTITLE9=Mi Fracaso
TTITLE10=No Puedo Dejar De Pensar En Ti
TTITLE11=Un Mal Amor
TTITLE12=Solo El Y Yo
TTITLE13=Gotitas De Miel
TTITLE14=Amor Eterno
TTITLE15=Como Una Mariposa
TTITLE16=Para Escribir Tu Nombre
TTITLE17=Sera Mi Condena
TTITLE18=No Me Vuelvas A Buscar
TTITLE19=Cuando No Estas Conmigo
EXTD=
EXTT0=
EXTT1=
EXTT2=
EXTT3=
EXTT4=
EXTT5=
EXTT6=
EXTT7=
EXTT8=
EXTT9=
EXTT10=
EXTT11=
EXTT12=
EXTT13=
EXTT14=
EXTT15=
EXTT16=
EXTT17=
EXTT18=
EXTT19=
PLAYORDER=
